<?xml version="1.0" standalone="no"?>
<!DOCTYPE svg PUBLIC "-//W3C//DTD SVG 20010904//EN"
 "http://www.w3.org/TR/2001/REC-SVG-20010904/DTD/svg10.dtd">
<svg version="1.0" xmlns="http://www.w3.org/2000/svg"
 width="260.000000pt" height="260.000000pt" viewBox="0 0 260.000000 260.000000"
 preserveAspectRatio="xMidYMid meet">
<metadata>
Created by potrace 1.11, written by Peter Selinger 2001-2013
</metadata>
<g transform="translate(0.000000,260.000000) scale(0.100000,-0.100000)"
fill="#000000" stroke="none">
<path d="M1217 2465 c-26 -6 -47 -10 -47 -9 0 5 -71 -22 -120 -44 -39 -18 -45
-18 -152 8 -43 10 -86 16 -97 13 -45 -12 -115 -240 -139 -453 -4 -36 -7 -193
-7 -350 0 -250 2 -292 19 -345 10 -33 22 -64 26 -70 5 -5 9 -13 9 -18 1 -15
35 -74 71 -122 42 -57 111 -123 157 -150 37 -22 39 -27 38 -120 l0 -70 -165
-6 c-172 -6 -192 -10 -250 -43 -83 -48 -135 -107 -171 -196 -19 -48 -22 -77
-24 -230 -2 -194 5 -233 50 -250 17 -6 344 -10 896 -10 l870 0 24 26 c14 15
25 30 26 33 6 30 3 336 -3 370 -18 102 -92 203 -185 256 -63 35 -77 37 -258
44 l-160 6 0 80 0 80 40 29 c107 78 193 184 232 286 44 112 51 149 52 263 1
76 1 77 25 73 14 -2 32 1 41 8 15 11 17 32 16 157 0 79 -3 155 -6 169 -2 14
-7 39 -11 55 -44 219 -221 422 -437 500 -34 13 -80 26 -102 30 -70 13 -209 13
-258 0z"/>
</g>
</svg>
